<?xml version="1.0" encoding="utf-8"?>
<!-- Generator: Adobe Illustrator 23.0.3, SVG Export Plug-In . SVG Version: 6.00 Build 0)  -->
<svg version="1.1" id="Layer_1" xmlns="http://www.w3.org/2000/svg" xmlns:xlink="http://www.w3.org/1999/xlink" x="0px" y="0px"
	 viewBox="0 0 452 452" style="enable-background:new 0 0 452 452;" xml:space="preserve">
<style type="text/css">
	.st0{fill:url(#SVGID_1_);}
	.st1{fill:url(#SVGID_2_);}
</style>
<linearGradient id="SVGID_1_" gradientUnits="userSpaceOnUse" x1="324.4534" y1="107.4765" x2="325.4308" y2="106.4991">
	<stop  offset="0.2451" style="stop-color:#4F307F"/>
	<stop  offset="0.2951" style="stop-color:#573A8C"/>
	<stop  offset="0.3733" style="stop-color:#5E4397"/>
	<stop  offset="0.4834" style="stop-color:#62499E"/>
	<stop  offset="0.7892" style="stop-color:#634AA0"/>
</linearGradient>
<path class="st0" d="M451.9,240.1c-0.1-0.4-0.2-0.7-0.3-1c0,0,0-0.1,0-0.1c-0.1-0.3-0.3-0.7-0.5-1c0,0,0-0.1,0-0.1
	c-0.2-0.3-0.5-0.6-0.7-0.9l0,0l0,0l-64.1-64.7c-4.9-4.9-11.5-7.7-18.5-7.7h-93.6V69.6c0-15.8-12.8-28.5-28.6-28.6h-217
	C12.8,41,0,53.8,0,69.6v272.7c0,15.8,12.8,28.5,28.6,28.6h22.6c3,22.6,22.3,39.5,45.1,39.5c22.8,0,42.1-16.9,45.1-39.5h169.3
	c3,22.6,22.3,39.5,45.1,39.5c22.8,0,42.1-16.9,45.1-39.5h22.6c15.8,0,28.5-12.8,28.6-28.6V241.2C452,240.9,452,240.5,451.9,240.1
	C451.9,240.2,451.9,240.1,451.9,240.1z M96.3,398.3c-18.5,0-33.5-15-33.5-33.5s15-33.5,33.5-33.5c18.5,0,33.5,15,33.5,33.5
	C129.7,383.3,114.7,398.3,96.3,398.3z M262.1,241.2v117.6H141.3c-3-22.6-22.3-39.5-45.1-39.5c-22.8,0-42.1,16.9-45.1,39.5H28.6
	c-9.1,0-16.6-7.4-16.6-16.6V69.6C12,60.4,19.4,53,28.6,53h217c9.1,0,16.6,7.4,16.6,16.6V241.2z M274.1,176.6h93.6
	c3.7,0,7.3,1.5,9.9,4.1l54,54.5H274.1V176.6z M355.7,398.3c-18.5,0-33.5-15-33.5-33.5c0-18.5,15-33.5,33.5-33.5
	c18.5,0,33.5,15,33.5,33.5C389.2,383.3,374.2,398.3,355.7,398.3L355.7,398.3z M440,342.3c0,9.1-7.4,16.6-16.6,16.6h-22.6
	c-3-22.6-22.3-39.5-45.1-39.5c-22.8,0-42.1,16.9-45.1,39.5h-36.5V247.2H440V342.3z"/>
<linearGradient id="SVGID_2_" gradientUnits="userSpaceOnUse" x1="140.7425" y1="3.3256" x2="140.7425" y2="456.7566" gradientTransform="matrix(1 0 0 -1 0 454)">
	<stop  offset="0.2451" style="stop-color:#4F307F"/>
	<stop  offset="0.2607" style="stop-color:#4E2F80"/>
	<stop  offset="0.4005" style="stop-color:#492987"/>
	<stop  offset="0.7892" style="stop-color:#482789"/>
</linearGradient>
<path class="st1" d="M224.3,162.7l-15-10.9v-17.1c0-3.3-2.7-6-6-6c-3.3,0-6,2.7-6,6v8.4l-53-38.6c-2.1-1.5-5-1.5-7.1,0l-80,58.2
	c-2.1,1.5-3,4.2-2.2,6.7c0.8,2.5,3.1,4.1,5.7,4.1h17.4V262c0,3.3,2.7,6,6,6h113.1c3.3,0,6-2.7,6-6v-88.5h17.4c2.6,0,4.9-1.7,5.7-4.1
	C227.2,166.9,226.4,164.2,224.3,162.7z M197.3,161.6c-3.3,0-6,2.7-6,6V256H90.2v-88.5c0-3.3-2.7-6-6-6h-5l61.6-44.8l61.6,44.8H197.3
	z"/>
</svg>
